<svg xmlns="http://www.w3.org/2000/svg" viewBox="0 0 284 57" enable-background="new 0 0 284 57"><style type="text/css">.st0{fill:#2A2E30;} .st1{fill:#FEBD28;}</style><path class="st0" d="M217.3 19.5c-7.2 0-13 5.8-13 13s5.8 13 13 13 13-5.8 13-13-5.8-13-13-13zm0 4.3c4.8 0 8.7 3.9 8.7 8.7 0 4.8-3.9 8.7-8.7 8.7-4.8 0-8.7-3.9-8.7-8.7 0-4.9 3.9-8.7 8.7-8.7"/><path class="st0" d="M130.7 37.2l-13.3-17.2h-4.1v24.9h4.3v-17.7l13.7 17.7h3.7v-24.9h-4.3v17.2zM145.7 34.3h12.5v-3.9h-12.5v-6.5h14.1v-3.9h-18.4v24.9h18.6v-3.9h-14.3v-6.7zM185.9 40.5h-6.7v-21h6.7c6.1 0 9.6 5 9.6 10.7-.1 5.5-3.8 10.3-9.6 10.3zm-.1-25.4h-15.2l1.9 4.4h2.4v25.4h11c4 0 6.8-1 9.5-4 2.8-2.9 4.4-7 4.4-11.1 0-8-5.9-14.7-14-14.7zM247.9 31.7l-7.6-11.7h-4.7v24.9h4.3v-17.8l7.8 11.6h.2l7.8-11.7v17.9h4.4v-24.9h-4.7l-7.5 11.7zM269.8 41v-6.7h12.4v-3.9h-12.4v-6.5h14v-3.9h-18.4v24.9h18.6v-3.9h-14.2zM92.9 15.2c-8.4 0-15.2 6.7-15.2 15.1 0 8.3 6.8 15.1 15.2 15.1 8.4 0 15.2-6.7 15.2-15.1 0-8.4-6.8-15.1-15.2-15.1zm0 4.3c6 0 10.8 4.8 10.8 10.7 0 5.9-4.9 10.7-10.8 10.7-6 0-10.8-4.8-10.8-10.7 0-5.9 4.8-10.7 10.8-10.7"/><path class="st1" d="M30.7 0c-16.7 0-30.2 13.5-30.2 30.2v.6c.2 8.1 3.5 15.4 8.9 20.7l6.1-6.1c-3.5-3.5-5.8-8.2-6.2-13.4-.1-.6-.1-1.2-.1-1.9 0-11.9 9.7-21.6 21.6-21.6 11.9 0 21.6 9.6 21.6 21.6 0 .6 0 1.3-.1 1.9-.4 5.2-2.7 9.9-6.2 13.4l6.1 6.1c5.3-5.3 8.7-12.6 8.8-20.7v-.6c-.1-16.7-13.6-30.2-30.3-30.2zM30.7 35.4c-1.4 0-2.7-.6-3.7-1.5-.9-.9-1.5-2.2-1.5-3.7 0-2.9 2.3-5.2 5.2-5.2 2.9 0 5.2 2.3 5.2 5.2 0 1.4-.6 2.7-1.5 3.7-1 .9-2.3 1.5-3.7 1.5zm0-18.2c-7.1 0-12.9 5.8-12.9 12.9 0 3.6 1.4 6.8 3.8 9.1l.2.2c3.4 3.4 6 7.5 7.5 12.1.4 1.4.8 2.7 1 4.2v.1c0 .2.2.3.4.3s.4-.1.4-.3v-.1c.2-1.4.6-2.8 1-4.2 1.5-4.6 4.1-8.8 7.5-12.1l.2-.2c2.3-2.3 3.8-5.6 3.8-9.1.1-7.1-5.7-12.9-12.9-12.9z"/></svg>